<mxfile host="app.diagrams.net" modified="2023-05-27T10:11:18.567Z" agent="Mozilla/5.0 (Macintosh; Intel Mac OS X 10_15_7) AppleWebKit/605.1.15 (KHTML, like Gecko) Version/16.4 Safari/605.1.15" etag="Gf4ACLi9hnUK8poSrXFL" version="21.3.3">
  <diagram name="Pagina-1" id="E3GI98uYucdItwS_r5Lm">
    <mxGraphModel dx="1781" dy="647" grid="1" gridSize="10" guides="1" tooltips="1" connect="1" arrows="1" fold="1" page="1" pageScale="1" pageWidth="827" pageHeight="1169" math="0" shadow="0">
      <root>
        <mxCell id="0" />
        <mxCell id="1" parent="0" />
        <mxCell id="kqwqcUx1cXgf259iEi2L-33" value="" style="rounded=0;orthogonalLoop=1;jettySize=auto;html=1;endArrow=none;endFill=0;" edge="1" parent="1" source="kqwqcUx1cXgf259iEi2L-1" target="kqwqcUx1cXgf259iEi2L-27">
          <mxGeometry relative="1" as="geometry" />
        </mxCell>
        <mxCell id="kqwqcUx1cXgf259iEi2L-34" style="rounded=0;orthogonalLoop=1;jettySize=auto;html=1;entryX=0.414;entryY=0.025;entryDx=0;entryDy=0;entryPerimeter=0;endArrow=none;endFill=0;" edge="1" parent="1" source="kqwqcUx1cXgf259iEi2L-1" target="kqwqcUx1cXgf259iEi2L-28">
          <mxGeometry relative="1" as="geometry" />
        </mxCell>
        <mxCell id="kqwqcUx1cXgf259iEi2L-1" value="Utente" style="rounded=0;whiteSpace=wrap;html=1;" vertex="1" parent="1">
          <mxGeometry x="110" y="490" width="100" height="50" as="geometry" />
        </mxCell>
        <mxCell id="kqwqcUx1cXgf259iEi2L-2" value="&lt;h1&gt;Biblioteca&lt;/h1&gt;&lt;div&gt;Schema ER, per la realizzazione di una base dati per l&#39;universitÃ  degli studi di Ferrara&lt;/div&gt;" style="text;html=1;strokeColor=none;fillColor=none;spacing=5;spacingTop=-20;whiteSpace=wrap;overflow=hidden;rounded=0;" vertex="1" parent="1">
          <mxGeometry x="20" y="10" width="190" height="100" as="geometry" />
        </mxCell>
        <mxCell id="kqwqcUx1cXgf259iEi2L-13" style="rounded=0;orthogonalLoop=1;jettySize=auto;html=1;entryX=1;entryY=1;entryDx=0;entryDy=0;endArrow=none;endFill=0;" edge="1" parent="1" source="kqwqcUx1cXgf259iEi2L-3" target="kqwqcUx1cXgf259iEi2L-9">
          <mxGeometry relative="1" as="geometry" />
        </mxCell>
        <mxCell id="kqwqcUx1cXgf259iEi2L-3" value="Libro" style="rounded=0;whiteSpace=wrap;html=1;" vertex="1" parent="1">
          <mxGeometry x="130" y="280" width="100" height="50" as="geometry" />
        </mxCell>
        <mxCell id="kqwqcUx1cXgf259iEi2L-42" style="rounded=0;orthogonalLoop=1;jettySize=auto;html=1;entryX=1;entryY=0;entryDx=0;entryDy=0;endArrow=none;endFill=0;" edge="1" parent="1" source="kqwqcUx1cXgf259iEi2L-4" target="kqwqcUx1cXgf259iEi2L-38">
          <mxGeometry relative="1" as="geometry" />
        </mxCell>
        <mxCell id="kqwqcUx1cXgf259iEi2L-43" style="rounded=0;orthogonalLoop=1;jettySize=auto;html=1;entryX=0.4;entryY=-0.025;entryDx=0;entryDy=0;entryPerimeter=0;endArrow=none;endFill=0;" edge="1" parent="1" source="kqwqcUx1cXgf259iEi2L-4" target="kqwqcUx1cXgf259iEi2L-39">
          <mxGeometry relative="1" as="geometry" />
        </mxCell>
        <mxCell id="kqwqcUx1cXgf259iEi2L-44" style="rounded=0;orthogonalLoop=1;jettySize=auto;html=1;entryX=0.257;entryY=0.075;entryDx=0;entryDy=0;entryPerimeter=0;endArrow=none;endFill=0;" edge="1" parent="1" source="kqwqcUx1cXgf259iEi2L-4" target="kqwqcUx1cXgf259iEi2L-40">
          <mxGeometry relative="1" as="geometry" />
        </mxCell>
        <mxCell id="kqwqcUx1cXgf259iEi2L-4" value="Prestito" style="rounded=0;whiteSpace=wrap;html=1;" vertex="1" parent="1">
          <mxGeometry x="410" y="520" width="100" height="50" as="geometry" />
        </mxCell>
        <mxCell id="kqwqcUx1cXgf259iEi2L-5" value="Autore" style="rounded=0;whiteSpace=wrap;html=1;" vertex="1" parent="1">
          <mxGeometry x="330" y="280" width="100" height="50" as="geometry" />
        </mxCell>
        <mxCell id="kqwqcUx1cXgf259iEi2L-56" style="rounded=0;orthogonalLoop=1;jettySize=auto;html=1;entryX=0.5;entryY=1;entryDx=0;entryDy=0;endArrow=none;endFill=0;" edge="1" parent="1" source="kqwqcUx1cXgf259iEi2L-6" target="kqwqcUx1cXgf259iEi2L-53">
          <mxGeometry relative="1" as="geometry" />
        </mxCell>
        <mxCell id="kqwqcUx1cXgf259iEi2L-57" style="rounded=0;orthogonalLoop=1;jettySize=auto;html=1;endArrow=none;endFill=0;" edge="1" parent="1" source="kqwqcUx1cXgf259iEi2L-6" target="kqwqcUx1cXgf259iEi2L-54">
          <mxGeometry relative="1" as="geometry" />
        </mxCell>
        <mxCell id="kqwqcUx1cXgf259iEi2L-58" style="rounded=0;orthogonalLoop=1;jettySize=auto;html=1;endArrow=none;endFill=0;" edge="1" parent="1" source="kqwqcUx1cXgf259iEi2L-6" target="kqwqcUx1cXgf259iEi2L-55">
          <mxGeometry relative="1" as="geometry" />
        </mxCell>
        <mxCell id="kqwqcUx1cXgf259iEi2L-6" value="Dipartimento" style="rounded=0;whiteSpace=wrap;html=1;" vertex="1" parent="1">
          <mxGeometry x="610" y="310" width="100" height="50" as="geometry" />
        </mxCell>
        <mxCell id="kqwqcUx1cXgf259iEi2L-68" style="rounded=0;orthogonalLoop=1;jettySize=auto;html=1;endArrow=none;endFill=0;" edge="1" parent="1" source="kqwqcUx1cXgf259iEi2L-7" target="kqwqcUx1cXgf259iEi2L-67">
          <mxGeometry relative="1" as="geometry" />
        </mxCell>
        <mxCell id="kqwqcUx1cXgf259iEi2L-69" style="rounded=0;orthogonalLoop=1;jettySize=auto;html=1;entryX=0;entryY=0;entryDx=0;entryDy=0;endArrow=none;endFill=0;" edge="1" parent="1" source="kqwqcUx1cXgf259iEi2L-7" target="kqwqcUx1cXgf259iEi2L-66">
          <mxGeometry relative="1" as="geometry" />
        </mxCell>
        <mxCell id="kqwqcUx1cXgf259iEi2L-70" style="rounded=0;orthogonalLoop=1;jettySize=auto;html=1;entryX=0;entryY=1;entryDx=0;entryDy=0;endArrow=none;endFill=0;" edge="1" parent="1" source="kqwqcUx1cXgf259iEi2L-7" target="kqwqcUx1cXgf259iEi2L-65">
          <mxGeometry relative="1" as="geometry" />
        </mxCell>
        <mxCell id="kqwqcUx1cXgf259iEi2L-7" value="Succursale" style="rounded=0;whiteSpace=wrap;html=1;" vertex="1" parent="1">
          <mxGeometry x="670" y="470" width="100" height="50" as="geometry" />
        </mxCell>
        <mxCell id="kqwqcUx1cXgf259iEi2L-8" value="ISBN" style="ellipse;whiteSpace=wrap;html=1;" vertex="1" parent="1">
          <mxGeometry y="200" width="70" height="40" as="geometry" />
        </mxCell>
        <mxCell id="kqwqcUx1cXgf259iEi2L-9" value="Titolo" style="ellipse;whiteSpace=wrap;html=1;" vertex="1" parent="1">
          <mxGeometry y="250" width="70" height="40" as="geometry" />
        </mxCell>
        <mxCell id="kqwqcUx1cXgf259iEi2L-10" value="Anno_pub" style="ellipse;whiteSpace=wrap;html=1;" vertex="1" parent="1">
          <mxGeometry y="310" width="70" height="40" as="geometry" />
        </mxCell>
        <mxCell id="kqwqcUx1cXgf259iEi2L-11" value="Lingua" style="ellipse;whiteSpace=wrap;html=1;" vertex="1" parent="1">
          <mxGeometry x="10" y="365" width="70" height="40" as="geometry" />
        </mxCell>
        <mxCell id="kqwqcUx1cXgf259iEi2L-12" value="&lt;u&gt;COD_lib&lt;/u&gt;" style="ellipse;whiteSpace=wrap;html=1;" vertex="1" parent="1">
          <mxGeometry x="90" y="200" width="70" height="40" as="geometry" />
        </mxCell>
        <mxCell id="kqwqcUx1cXgf259iEi2L-14" style="rounded=0;orthogonalLoop=1;jettySize=auto;html=1;entryX=1;entryY=1;entryDx=0;entryDy=0;endArrow=none;endFill=0;" edge="1" parent="1" source="kqwqcUx1cXgf259iEi2L-3" target="kqwqcUx1cXgf259iEi2L-8">
          <mxGeometry relative="1" as="geometry">
            <mxPoint x="140" y="306" as="sourcePoint" />
            <mxPoint x="70" y="294" as="targetPoint" />
          </mxGeometry>
        </mxCell>
        <mxCell id="kqwqcUx1cXgf259iEi2L-15" style="rounded=0;orthogonalLoop=1;jettySize=auto;html=1;endArrow=none;endFill=0;exitX=0.25;exitY=0;exitDx=0;exitDy=0;" edge="1" parent="1" source="kqwqcUx1cXgf259iEi2L-3" target="kqwqcUx1cXgf259iEi2L-12">
          <mxGeometry relative="1" as="geometry">
            <mxPoint x="150" y="316" as="sourcePoint" />
            <mxPoint x="80" y="304" as="targetPoint" />
          </mxGeometry>
        </mxCell>
        <mxCell id="kqwqcUx1cXgf259iEi2L-16" style="rounded=0;orthogonalLoop=1;jettySize=auto;html=1;entryX=1;entryY=0.5;entryDx=0;entryDy=0;endArrow=none;endFill=0;exitX=0;exitY=0.75;exitDx=0;exitDy=0;" edge="1" parent="1" source="kqwqcUx1cXgf259iEi2L-3" target="kqwqcUx1cXgf259iEi2L-10">
          <mxGeometry relative="1" as="geometry">
            <mxPoint x="160" y="326" as="sourcePoint" />
            <mxPoint x="90" y="314" as="targetPoint" />
          </mxGeometry>
        </mxCell>
        <mxCell id="kqwqcUx1cXgf259iEi2L-17" style="rounded=0;orthogonalLoop=1;jettySize=auto;html=1;entryX=1;entryY=0.5;entryDx=0;entryDy=0;endArrow=none;endFill=0;exitX=0;exitY=0.75;exitDx=0;exitDy=0;" edge="1" parent="1" source="kqwqcUx1cXgf259iEi2L-3" target="kqwqcUx1cXgf259iEi2L-11">
          <mxGeometry relative="1" as="geometry">
            <mxPoint x="170" y="336" as="sourcePoint" />
            <mxPoint x="100" y="324" as="targetPoint" />
          </mxGeometry>
        </mxCell>
        <mxCell id="kqwqcUx1cXgf259iEi2L-19" value="Nome" style="ellipse;whiteSpace=wrap;html=1;" vertex="1" parent="1">
          <mxGeometry x="10" y="470" width="70" height="40" as="geometry" />
        </mxCell>
        <mxCell id="kqwqcUx1cXgf259iEi2L-20" value="Cognome" style="ellipse;whiteSpace=wrap;html=1;" vertex="1" parent="1">
          <mxGeometry x="10" y="530" width="70" height="40" as="geometry" />
        </mxCell>
        <mxCell id="kqwqcUx1cXgf259iEi2L-35" style="rounded=0;orthogonalLoop=1;jettySize=auto;html=1;entryX=0;entryY=0;entryDx=0;entryDy=0;endArrow=none;endFill=0;" edge="1" parent="1" source="kqwqcUx1cXgf259iEi2L-23" target="kqwqcUx1cXgf259iEi2L-24">
          <mxGeometry relative="1" as="geometry" />
        </mxCell>
        <mxCell id="kqwqcUx1cXgf259iEi2L-36" style="rounded=0;orthogonalLoop=1;jettySize=auto;html=1;entryX=0.757;entryY=0.025;entryDx=0;entryDy=0;entryPerimeter=0;endArrow=none;endFill=0;" edge="1" parent="1" source="kqwqcUx1cXgf259iEi2L-23" target="kqwqcUx1cXgf259iEi2L-25">
          <mxGeometry relative="1" as="geometry" />
        </mxCell>
        <mxCell id="kqwqcUx1cXgf259iEi2L-37" style="rounded=0;orthogonalLoop=1;jettySize=auto;html=1;endArrow=none;endFill=0;" edge="1" parent="1" source="kqwqcUx1cXgf259iEi2L-23" target="kqwqcUx1cXgf259iEi2L-26">
          <mxGeometry relative="1" as="geometry" />
        </mxCell>
        <mxCell id="kqwqcUx1cXgf259iEi2L-23" value="Indirizzo" style="ellipse;whiteSpace=wrap;html=1;" vertex="1" parent="1">
          <mxGeometry x="10" y="600" width="70" height="40" as="geometry" />
        </mxCell>
        <mxCell id="kqwqcUx1cXgf259iEi2L-24" value="CAP" style="ellipse;whiteSpace=wrap;html=1;" vertex="1" parent="1">
          <mxGeometry x="50" y="660" width="70" height="40" as="geometry" />
        </mxCell>
        <mxCell id="kqwqcUx1cXgf259iEi2L-25" value="Numero" style="ellipse;whiteSpace=wrap;html=1;" vertex="1" parent="1">
          <mxGeometry x="-40" y="670" width="70" height="40" as="geometry" />
        </mxCell>
        <mxCell id="kqwqcUx1cXgf259iEi2L-26" value="Via" style="ellipse;whiteSpace=wrap;html=1;" vertex="1" parent="1">
          <mxGeometry x="-80" y="610" width="70" height="40" as="geometry" />
        </mxCell>
        <mxCell id="kqwqcUx1cXgf259iEi2L-27" value="Num_tel" style="ellipse;whiteSpace=wrap;html=1;" vertex="1" parent="1">
          <mxGeometry x="120" y="600" width="70" height="40" as="geometry" />
        </mxCell>
        <mxCell id="kqwqcUx1cXgf259iEi2L-28" value="&lt;u&gt;Matricola&lt;/u&gt;" style="ellipse;whiteSpace=wrap;html=1;" vertex="1" parent="1">
          <mxGeometry x="220" y="600" width="70" height="40" as="geometry" />
        </mxCell>
        <mxCell id="kqwqcUx1cXgf259iEi2L-29" style="rounded=0;orthogonalLoop=1;jettySize=auto;html=1;entryX=1;entryY=0.5;entryDx=0;entryDy=0;endArrow=none;endFill=0;exitX=0;exitY=0.25;exitDx=0;exitDy=0;" edge="1" parent="1" source="kqwqcUx1cXgf259iEi2L-1" target="kqwqcUx1cXgf259iEi2L-19">
          <mxGeometry relative="1" as="geometry">
            <mxPoint x="140" y="328" as="sourcePoint" />
            <mxPoint x="90" y="395" as="targetPoint" />
          </mxGeometry>
        </mxCell>
        <mxCell id="kqwqcUx1cXgf259iEi2L-30" style="rounded=0;orthogonalLoop=1;jettySize=auto;html=1;endArrow=none;endFill=0;exitX=0;exitY=0.75;exitDx=0;exitDy=0;" edge="1" parent="1" source="kqwqcUx1cXgf259iEi2L-1">
          <mxGeometry relative="1" as="geometry">
            <mxPoint x="150" y="338" as="sourcePoint" />
            <mxPoint x="80" y="544" as="targetPoint" />
          </mxGeometry>
        </mxCell>
        <mxCell id="kqwqcUx1cXgf259iEi2L-31" style="rounded=0;orthogonalLoop=1;jettySize=auto;html=1;entryX=1;entryY=0;entryDx=0;entryDy=0;endArrow=none;endFill=0;" edge="1" parent="1" source="kqwqcUx1cXgf259iEi2L-1" target="kqwqcUx1cXgf259iEi2L-23">
          <mxGeometry relative="1" as="geometry">
            <mxPoint x="160" y="348" as="sourcePoint" />
            <mxPoint x="110" y="415" as="targetPoint" />
          </mxGeometry>
        </mxCell>
        <mxCell id="kqwqcUx1cXgf259iEi2L-38" value="Libro_pre" style="ellipse;whiteSpace=wrap;html=1;" vertex="1" parent="1">
          <mxGeometry x="355" y="600" width="70" height="40" as="geometry" />
        </mxCell>
        <mxCell id="kqwqcUx1cXgf259iEi2L-39" value="Utente_pre" style="ellipse;whiteSpace=wrap;html=1;" vertex="1" parent="1">
          <mxGeometry x="440" y="600" width="70" height="40" as="geometry" />
        </mxCell>
        <mxCell id="kqwqcUx1cXgf259iEi2L-40" value="Suc_bib" style="ellipse;whiteSpace=wrap;html=1;" vertex="1" parent="1">
          <mxGeometry x="520" y="590" width="70" height="40" as="geometry" />
        </mxCell>
        <mxCell id="kqwqcUx1cXgf259iEi2L-41" value="Data?&lt;br&gt;In corso?&lt;br&gt;In scadenza?&lt;br&gt;Restituito?" style="ellipse;whiteSpace=wrap;html=1;" vertex="1" parent="1">
          <mxGeometry x="490" y="670" width="110" height="70" as="geometry" />
        </mxCell>
        <mxCell id="kqwqcUx1cXgf259iEi2L-49" style="rounded=0;orthogonalLoop=1;jettySize=auto;html=1;entryX=0.25;entryY=0;entryDx=0;entryDy=0;endArrow=none;endFill=0;" edge="1" parent="1" source="kqwqcUx1cXgf259iEi2L-45" target="kqwqcUx1cXgf259iEi2L-5">
          <mxGeometry relative="1" as="geometry" />
        </mxCell>
        <mxCell id="kqwqcUx1cXgf259iEi2L-45" value="Nome" style="ellipse;whiteSpace=wrap;html=1;" vertex="1" parent="1">
          <mxGeometry x="230" y="190" width="70" height="40" as="geometry" />
        </mxCell>
        <mxCell id="kqwqcUx1cXgf259iEi2L-46" value="Data_nascita?" style="ellipse;whiteSpace=wrap;html=1;" vertex="1" parent="1">
          <mxGeometry x="400" y="170" width="90" height="40" as="geometry" />
        </mxCell>
        <mxCell id="kqwqcUx1cXgf259iEi2L-47" value="Cognome" style="ellipse;whiteSpace=wrap;html=1;" vertex="1" parent="1">
          <mxGeometry x="310" y="180" width="70" height="40" as="geometry" />
        </mxCell>
        <mxCell id="kqwqcUx1cXgf259iEi2L-48" value="&lt;u&gt;COD_autore&lt;/u&gt;" style="ellipse;whiteSpace=wrap;html=1;" vertex="1" parent="1">
          <mxGeometry x="490" y="200" width="80" height="40" as="geometry" />
        </mxCell>
        <mxCell id="kqwqcUx1cXgf259iEi2L-50" style="rounded=0;orthogonalLoop=1;jettySize=auto;html=1;entryX=0.41;entryY=0.02;entryDx=0;entryDy=0;endArrow=none;endFill=0;exitX=0.4;exitY=1;exitDx=0;exitDy=0;exitPerimeter=0;entryPerimeter=0;" edge="1" parent="1" source="kqwqcUx1cXgf259iEi2L-47" target="kqwqcUx1cXgf259iEi2L-5">
          <mxGeometry relative="1" as="geometry">
            <mxPoint x="296" y="236" as="sourcePoint" />
            <mxPoint x="365" y="290" as="targetPoint" />
          </mxGeometry>
        </mxCell>
        <mxCell id="kqwqcUx1cXgf259iEi2L-51" style="rounded=0;orthogonalLoop=1;jettySize=auto;html=1;entryX=0.5;entryY=0;entryDx=0;entryDy=0;endArrow=none;endFill=0;exitX=0.5;exitY=1;exitDx=0;exitDy=0;" edge="1" parent="1" source="kqwqcUx1cXgf259iEi2L-46" target="kqwqcUx1cXgf259iEi2L-5">
          <mxGeometry relative="1" as="geometry">
            <mxPoint x="306" y="246" as="sourcePoint" />
            <mxPoint x="375" y="300" as="targetPoint" />
          </mxGeometry>
        </mxCell>
        <mxCell id="kqwqcUx1cXgf259iEi2L-52" style="rounded=0;orthogonalLoop=1;jettySize=auto;html=1;entryX=0.75;entryY=0;entryDx=0;entryDy=0;endArrow=none;endFill=0;exitX=0;exitY=1;exitDx=0;exitDy=0;" edge="1" parent="1" source="kqwqcUx1cXgf259iEi2L-48" target="kqwqcUx1cXgf259iEi2L-5">
          <mxGeometry relative="1" as="geometry">
            <mxPoint x="316" y="256" as="sourcePoint" />
            <mxPoint x="385" y="310" as="targetPoint" />
          </mxGeometry>
        </mxCell>
        <mxCell id="kqwqcUx1cXgf259iEi2L-53" value="Direttore" style="ellipse;whiteSpace=wrap;html=1;" vertex="1" parent="1">
          <mxGeometry x="630" y="230" width="70" height="40" as="geometry" />
        </mxCell>
        <mxCell id="kqwqcUx1cXgf259iEi2L-62" style="rounded=0;orthogonalLoop=1;jettySize=auto;html=1;entryX=0.5;entryY=1;entryDx=0;entryDy=0;endArrow=none;endFill=0;" edge="1" parent="1" source="kqwqcUx1cXgf259iEi2L-54" target="kqwqcUx1cXgf259iEi2L-59">
          <mxGeometry relative="1" as="geometry" />
        </mxCell>
        <mxCell id="kqwqcUx1cXgf259iEi2L-63" style="rounded=0;orthogonalLoop=1;jettySize=auto;html=1;endArrow=none;endFill=0;" edge="1" parent="1" source="kqwqcUx1cXgf259iEi2L-54" target="kqwqcUx1cXgf259iEi2L-61">
          <mxGeometry relative="1" as="geometry" />
        </mxCell>
        <mxCell id="kqwqcUx1cXgf259iEi2L-64" style="rounded=0;orthogonalLoop=1;jettySize=auto;html=1;entryX=0.5;entryY=1;entryDx=0;entryDy=0;endArrow=none;endFill=0;" edge="1" parent="1" source="kqwqcUx1cXgf259iEi2L-54" target="kqwqcUx1cXgf259iEi2L-60">
          <mxGeometry relative="1" as="geometry" />
        </mxCell>
        <mxCell id="kqwqcUx1cXgf259iEi2L-54" value="Sede" style="ellipse;whiteSpace=wrap;html=1;" vertex="1" parent="1">
          <mxGeometry x="730" y="260" width="70" height="40" as="geometry" />
        </mxCell>
        <mxCell id="kqwqcUx1cXgf259iEi2L-55" value="Nome_dipar" style="ellipse;whiteSpace=wrap;html=1;" vertex="1" parent="1">
          <mxGeometry x="740" y="330" width="80" height="40" as="geometry" />
        </mxCell>
        <mxCell id="kqwqcUx1cXgf259iEi2L-59" value="Via" style="ellipse;whiteSpace=wrap;html=1;" vertex="1" parent="1">
          <mxGeometry x="730" y="190" width="70" height="40" as="geometry" />
        </mxCell>
        <mxCell id="kqwqcUx1cXgf259iEi2L-60" value="Numero" style="ellipse;whiteSpace=wrap;html=1;" vertex="1" parent="1">
          <mxGeometry x="820" y="200" width="70" height="40" as="geometry" />
        </mxCell>
        <mxCell id="kqwqcUx1cXgf259iEi2L-61" value="CAP" style="ellipse;whiteSpace=wrap;html=1;" vertex="1" parent="1">
          <mxGeometry x="840" y="250" width="70" height="40" as="geometry" />
        </mxCell>
        <mxCell id="kqwqcUx1cXgf259iEi2L-65" value="Indirizzo" style="ellipse;whiteSpace=wrap;html=1;" vertex="1" parent="1">
          <mxGeometry x="820" y="460" width="80" height="40" as="geometry" />
        </mxCell>
        <mxCell id="kqwqcUx1cXgf259iEi2L-66" value="Nome_sucur" style="ellipse;whiteSpace=wrap;html=1;" vertex="1" parent="1">
          <mxGeometry x="815" y="525" width="80" height="40" as="geometry" />
        </mxCell>
        <mxCell id="kqwqcUx1cXgf259iEi2L-67" value="&lt;u&gt;COD_suc&lt;/u&gt;" style="ellipse;whiteSpace=wrap;html=1;" vertex="1" parent="1">
          <mxGeometry x="770" y="585" width="80" height="40" as="geometry" />
        </mxCell>
      </root>
    </mxGraphModel>
  </diagram>
</mxfile>
